#Produced by polyHédronisme http://levskaya.github.com/polyhedronisme
group du2I
#vertices
v 0.22971449085530304 0.167038475731924 0.9558228515339197
v 0.39077443148187907 0.6639436675222291 0.6330145994626378
v 0.7519226873532973 0.16703904502209677 0.6331939844377276
v 0.49079720838326085 0.35683861300504033 0.7948298901266967
v -0.08784528563018969 0.27000500268464295 0.9558383875948308
v -0.5105168250568599 0.5768936905651237 0.6330671617787711
v 0.07304960601285115 0.7669388930158691 0.6330187171443382
v -0.1878840581266118 0.5773157307647155 0.7945821459642286
v -0.28390372939524866 0.000020103726710087388 0.9558519379700785
v -0.7064569968036041 -0.30701222467668443 0.6331441261618941
v -0.7065545354460064 0.3067405235742633 0.6331819094843997
v -0.6069515496696246 -0.000027180674700435398 0.7947051675787656
v -0.08767160403032073 -0.2700777963086889 0.9558417240437184
v 0.07378819213461561 -0.7667771169427545 0.6331034538581501
v -0.5101540403310162 -0.5770624964500302 0.6332269204449307
v -0.1875052772963088 -0.5771566037313899 0.7947848818900082
v 0.22980700674061724 -0.16696974968837666 0.9558101667382997
v 0.751898429346573 -0.16692616502681176 0.6332470914058941
v 0.3911582608550117 -0.6635915598738837 0.6331310966912832
v 0.49098365668093535 -0.35665120533419287 0.7947962588179922
v 0.8940827625535118 -0.27013305716609776 0.34915244642257137
v 0.7944841064291127 -0.5770084010161057 -0.173395202721466
v 0.5333680802122777 -0.7668102446656588 0.3489913169518627
v 0.7946420920317345 -0.5772594896087785 0.1878563773658574
v 0.9819044305430892 0.000008393284982804966 0.17360630998211224
v 0.8821579831977711 0.3070323863261839 -0.34891202317827413
v 0.8823078655128842 -0.30678601142344647 -0.348793261203564
v 0.9822447521912242 -0.000040571165715162365 -0.18752441842106685
v 0.8940792641866688 0.27029156877317345 0.3490568022588606
v 0.5329370827972456 0.7671976488480633 0.348814645018075
v 0.7943856097818597 0.5771417651754366 -0.17349744531968292
v 0.7945769068209192 0.5774633064908249 0.18757310255893264
v 0.3031111535221617 0.9340598445060558 0.1730624132574163
v -0.019512339583487956 0.9337430449532415 -0.34921680478357864
v 0.564529957522804 0.7440794279392264 -0.3491667135989662
v 0.30331868620384156 0.9341911760232136 -0.18780085489250542
v 0.01866920631762257 0.9340236473120805 0.34862231048656867
v -0.5649336144398763 0.7438977470322055 0.3488763558103706
v -0.30372055353099936 0.933722279542973 -0.17360087514626601
v -0.303733100825464 0.9341202173016037 0.1875123661748613
v -0.7944417747645366 0.5770784494606902 0.17358114005358402
v -0.8941313513125271 0.2700325877508602 -0.3490586213343403
v -0.53334402297612 0.7668280362821951 -0.34899152471425055
v -0.7946602070585689 0.5772836432066928 -0.18769204127762598
v -0.8822412272660819 0.3067751194078064 0.3490251331108825
v -0.8821155701660404 -0.3070641094425417 0.3490661522273638
v -0.9818994510140453 -0.00008584055617437724 -0.17353085650724195
v -0.9822034354467893 -0.00003819861023171114 0.18781237222669903
v -0.794350239359052 -0.5771948561685559 0.17360850914895043
v -0.5330452000903813 -0.7670118543149634 -0.3489634275997709
v -0.8940554404819508 -0.2703977712486266 -0.349047305281567
v -0.7945998696756543 -0.5773906023715114 -0.18766121571004085
v -0.5645130442918198 -0.7441581971128607 0.34906448674110757
v 0.019524250054904903 -0.933826809530563 0.34907427299346494
v -0.30340844953089824 -0.9338543047182025 -0.17349660753278867
v -0.30350544950462566 -0.934136553195073 0.18779537457684692
v 0.30362132591026475 -0.9338190608074064 0.17348239246380145
v 0.5648008458970004 -0.7439741380946279 -0.3489523655316638
v -0.019312464759527276 -0.9338352064139742 -0.34905926360248246
v 0.30372463763699736 -0.934116914079727 -0.1875438397307304
v 0.7066242786265209 0.30697774064178557 -0.6330045170239914
v 0.283989382829659 -0.000020991916241440807 -0.9557935347074369
v 0.7066718310755222 -0.30682516650330804 -0.6330466127794826
v 0.6071784401249282 -0.00002822669577000972 -0.7945418903602806
v 0.5103871263144774 0.5770850518877835 -0.633065718745438
v -0.07368387182485166 0.7667789941885569 -0.6331479889167363
v 0.08789291735322113 0.26993168950526447 -0.955836935574152
v 0.18771873192550395 0.577192393720329 -0.7947136093824493
v 0.5105476779229737 -0.5770111213810164 -0.6329944201324949
v 0.08782276097866369 -0.2699595417415928 -0.9558454675393102
v -0.07348585358949888 -0.7668421453403464 -0.6331231139440507
v 0.18771051148178794 -0.5772891937929296 -0.7946569527167243
v -0.3911433112055845 0.6635660728886075 -0.6332233184174199
v -0.7519093795966056 0.1668174189271336 -0.6332945118597079
v -0.22948684665566427 0.16678735664329614 -0.955904731337064
v -0.49095564457915025 0.3567578386480488 -0.7947845803642328
v -0.7518578898538396 -0.16711458865924161 -0.633303843299319
v -0.39090927939712833 -0.6637318818544861 -0.6331632612148207
v -0.22944237053823474 -0.16685220959348113 -0.9559105175952269
v -0.49092498605631374 -0.35682916477339305 -0.7947676007649648
#normal vector deg
fs 
vn -0.26270541440750367 -0.808928963839617 0.5259465720986737
vn -0.5877391292798582 -0.8090505026822217 0.000004795670782422776
vn -0.7234620544031015 -0.5257052955250171 0.44747804202641955
vn 0.00004556358078101669 -0.9999999988691001 0.000013629371558770404
vn 0.2765132739205267 -0.8505267542020144 0.447375289586202
vn -0.4252174957493163 -0.30891488419873125 0.8507418384146653
vn -0.27629474232012396 -0.8506346709140664 -0.447305121818624
vn -0.9510452761668087 -0.30905158402144917 0.000033085221731060886
vn 0.16246306466205923 -0.49994085486096124 0.8506849559393318
vn -0.6879662585055757 -0.5001868229361688 -0.5258474772392286
vn -0.8505440111709965 -0.00015314940910737568 0.525903852055117
vn 0.5879807935787212 -0.8088748891057082 0.000012520597462076709
vn 0.2630478087960175 -0.808957189269915 -0.5257319813518412
vn 0.00007041294488441583 -0.00000601481441060065 0.9999999975029196
vn 0.688086875298471 -0.4998974813420552 0.525964789876524
vn -0.8943228970901186 -0.00013233517191873077 -0.4474221029718348
vn -0.1622599439075381 -0.4998830745556144 -0.8507576754728391
vn -0.4253108961455374 0.3089103705118805 0.8506967877041104
vn -0.9510846374809322 0.3089304279317727 -0.00005518745996028934
vn 0.525600943292587 0.00009960401990893419 0.8507312375180436
vn -0.7236891707716216 0.5254397864320881 0.447422635705978
vn 0.7238090693875793 -0.5254985675532464 -0.44715957618256635
vn -0.5254199594752648 -0.00004711396249224897 -0.8508430313314469
vn 0.9510604591014614 -0.30900481126172763 0.00017248426524416554
vn 0.42533275467174114 -0.3089050723572487 -0.8506877829587723
vn 0.1621504286329663 0.5000856684895745 0.8506594869073528
vn 0.8942828210071654 0.00006320578141183597 0.4475022145827833
vn -0.688189752194844 0.4998654541669687 -0.5258606209866347
vn 0.00021864145920642706 0.000016214353823466024 -0.9999999759665034
vn -0.2633377277189997 0.8088963985774718 0.5256803758256438
vn -0.587930642073736 0.8089113416005455 -0.00003925264384162505
vn 0.8507083214281481 0.00010374195969362347 -0.5256380323858886
vn 0.6879310917068795 0.5002037263609728 0.5258774051027275
vn -0.162259947618171 0.4998170082839267 -0.8507964901367739
vn 0.9510513391357148 0.3090329262589066 0.000028566077996254553
vn 0.2758458184003739 0.8508739544056362 0.4471270492658023
vn 0.42536597905303714 0.30885318011700513 -0.8506900122817147
vn -0.27647247347628506 0.8505460638549096 -0.44736379454625624
vn -0.0003455359163254189 0.9999998687826454 -0.0003782057938069412
vn 0.7236452906116776 0.5256506001661999 -0.44724595014427415
vn 0.5876780404416957 0.8090948530313694 -0.00019894912809220787
vn 0.26277308498373764 0.8089443832788672 -0.5258890477750061
#g
face deg
fs 
g
f 16//1 15//1 53//1 56//1 54//1 14//1 
g
f 52//2 50//2 55//2 56//2 53//2 49//2 
g
f 46//3 49//3 53//3 15//3 10//3 
g
f 56//4 55//4 59//4 60//4 57//4 54//4 
g
f 54//5 57//5 23//5 19//5 14//5 
g
f 12//6 10//6 15//6 16//6 13//6 9//6 
g
f 78//7 71//7 59//7 55//7 50//7 
g
f 48//8 47//8 51//8 52//8 49//8 46//8 
g
f 16//9 14//9 19//9 20//9 17//9 13//9 
g
f 52//10 51//10 77//10 80//10 78//10 50//10 
g
f 12//11 11//11 45//11 48//11 46//11 10//11 
g
f 24//12 23//12 57//12 60//12 58//12 22//12 
g
f 60//13 59//13 71//13 72//13 69//13 58//13 
g
f 5//14 9//14 13//14 17//14 1//14 
g
f 20//15 19//15 23//15 24//15 21//15 18//15 
g
f 74//16 77//16 51//16 47//16 42//16 
g
f 72//17 71//17 78//17 80//17 79//17 70//17 
g
f 8//18 6//18 11//18 12//18 9//18 5//18 
g
f 44//19 42//19 47//19 48//19 45//19 41//19 
g
f 17//20 20//20 18//20 3//20 4//20 1//20 
g
f 38//21 41//21 45//21 11//21 6//21 
g
f 58//22 69//22 63//22 27//22 22//22 
g
f 76//23 75//23 79//23 80//23 77//23 74//23 
g
f 24//24 22//24 27//24 28//24 25//24 21//24 
g
f 64//25 63//25 69//25 72//25 70//25 62//25 
g
f 4//26 2//26 7//26 8//26 5//26 1//26 
g
f 18//27 21//27 25//27 29//27 3//27 
g
f 44//28 43//28 73//28 76//28 74//28 42//28 
g
f 70//29 79//29 75//29 67//29 62//29 
g
f 8//30 7//30 37//30 40//30 38//30 6//30 
g
f 40//31 39//31 43//31 44//31 41//31 38//31 
g
f 28//32 27//32 63//32 64//32 61//32 26//32 
g
f 4//33 3//33 29//33 32//33 30//33 2//33 
g
f 68//34 67//34 75//34 76//34 73//34 66//34 
g
f 28//35 26//35 31//35 32//35 29//35 25//35 
g
f 30//36 33//36 37//36 7//36 2//36 
g
f 64//37 62//37 67//37 68//37 65//37 61//37 
g
f 66//38 73//38 43//38 39//38 34//38 
g
f 36//39 34//39 39//39 40//39 37//39 33//39 
g
f 61//40 65//40 35//40 31//40 26//40 
g
f 32//41 31//41 35//41 36//41 33//41 30//41 
g
f 36//42 35//42 65//42 68//42 66//42 34//42 
